<svg version="1.1" id="Layer_1" xmlns="http://www.w3.org/2000/svg" x="0" y="0" viewBox="0 0 100 100" xml:space="preserve"><style>.st0{fill:#d3ae8d}</style><path class="st0" d="M99.9 100H.1V0H100v100zM4.3 95.7h91.3V4.3H4.3v91.4z"/><path class="st0" d="M42.9 36.4c-1.1-3.5-1.9-6.7-2.7-9.7H40c-.7 3.1-1.6 6.4-2.6 9.7l-5.2 15.4h16.1l-5.4-15.4z"/><path class="st0" d="M8.5 92.4h83.2V9.1H8.5v83.3zm67.1-19.7H69V36.4h6.6v36.3zm-3.3-51.4c2.5 0 4.2 1.9 4.2 4.2s-1.6 4.3-4.3 4.3h-.1c-2.5 0-4.1-1.9-4.1-4.3s1.7-4.2 4.3-4.2m-35.3.9h7.9L62 72.7h-7l-5.4-15.9H31.8l-5.2 15.9h-6.7L37 22.2z"/></svg>