<svg version="1.1" id="Layer_1" xmlns="http://www.w3.org/2000/svg" x="0" y="0" viewBox="0 0 100 100" xml:space="preserve"><style>.st0{fill:#d3ae8d}</style><path class="st0" d="M99.9 100H.1V0H100v100zM4.3 95.7h91.3V4.3H4.3v91.4z"/><path class="st0" d="M8.5 92.3h83.2V8.9H8.5v83.4zm42.3-45.1c-3.4 3.7-9.1 5.5-15.4 5.5-1.9 0-3.7-.1-5.2-.5v20.2h-6.5V22.7c3.1-.6 7.3-1 12.5-1 6.4 0 11.2 1.5 14.2 4.2 2.8 2.4 4.5 6.1 4.5 10.6-.1 4.5-1.5 8.1-4.1 10.7m18.7 26.2c-4 0-7.6-1.1-10.2-2.6l1.6-4.9c2 1.2 5.5 2.6 8.8 2.6 4.7 0 7-2.3 7-5.4 0-3.1-1.9-4.9-6.7-6.7-6.6-2.4-9.7-5.9-9.7-10.3 0-5.8 4.8-10.6 12.5-10.6 3.7 0 6.9 1 8.8 2.2L80 42.4c-1.4-.8-4-2.1-7.4-2.1-3.9 0-6 2.2-6 4.9 0 3.1 2.1 4.4 6.8 6.2 6.2 2.3 9.5 5.5 9.5 10.9 0 6.6-5 11.1-13.4 11.1"/><path class="st0" d="M36.3 26.8c-2.8 0-5 .3-6.1.5V47c1.4.4 3.3.5 5.4.5 7.9 0 12.7-3.9 12.7-10.7-.1-6.8-4.8-10-12-10"/></svg>