<?xml version="1.0" encoding="utf-8"?>
<!-- Generator: Adobe Illustrator 22.0.1, SVG Export Plug-In . SVG Version: 6.00 Build 0)  -->
<svg version="1.1" id="Layer_1" xmlns="http://www.w3.org/2000/svg" xmlns:xlink="http://www.w3.org/1999/xlink" x="0px" y="0px"
	 viewBox="0 0 100 100" style="enable-background:new 0 0 100 100;" xml:space="preserve">
<style type="text/css">
	.st0{fill:#D3AE8D;}
</style>
<g>
	<path class="st0" d="M99.9,100H0.1V0h99.9V100z M4.3,95.7h91.3V4.3H4.3V95.7z"/>
	<path class="st0" d="M42.9,36.4c-1.1-3.5-1.9-6.7-2.7-9.7H40c-0.7,3.1-1.6,6.4-2.6,9.7l-5.2,15.4h16.1L42.9,36.4z"/>
	<path class="st0" d="M8.5,92.4h83.2V9.1H8.5V92.4z M75.6,72.7H69V36.4h6.6V72.7z M72.3,21.3c2.5,0,4.2,1.9,4.2,4.2
		s-1.6,4.3-4.3,4.3h-0.1c-2.5,0-4.1-1.9-4.1-4.3S69.7,21.3,72.3,21.3 M37,22.2h7.9L62,72.7h-7l-5.4-15.9H31.8l-5.2,15.9h-6.7
		L37,22.2z"/>
</g>
</svg>
