<?xml version="1.0" encoding="utf-8"?>
<!-- Generator: Adobe Illustrator 22.0.1, SVG Export Plug-In . SVG Version: 6.00 Build 0)  -->
<svg version="1.1" id="Layer_1" xmlns="http://www.w3.org/2000/svg" xmlns:xlink="http://www.w3.org/1999/xlink" x="0px" y="0px"
	 viewBox="0 0 100 100" style="enable-background:new 0 0 100 100;" xml:space="preserve">
<style type="text/css">
	.st0{fill:#D3AE8D;}
</style>
<g>
	<path class="st0" d="M99.9,100H0.1V0h99.9V100z M4.3,95.7h91.3V4.3H4.3V95.7z"/>
	<path class="st0" d="M8.5,92.3h83.2V8.9H8.5V92.3z M50.8,47.2c-3.4,3.7-9.1,5.5-15.4,5.5c-1.9,0-3.7-0.1-5.2-0.5v20.2h-6.5V22.7
		c3.1-0.6,7.3-1,12.5-1c6.4,0,11.2,1.5,14.2,4.2c2.8,2.4,4.5,6.1,4.5,10.6C54.8,41,53.4,44.6,50.8,47.2 M69.5,73.4
		c-4,0-7.6-1.1-10.2-2.6l1.6-4.9c2,1.2,5.5,2.6,8.8,2.6c4.7,0,7-2.3,7-5.4c0-3.1-1.9-4.9-6.7-6.7c-6.6-2.4-9.7-5.9-9.7-10.3
		c0-5.8,4.8-10.6,12.5-10.6c3.7,0,6.9,1,8.8,2.2L80,42.4c-1.4-0.8-4-2.1-7.4-2.1c-3.9,0-6,2.2-6,4.9c0,3.1,2.1,4.4,6.8,6.2
		c6.2,2.3,9.5,5.5,9.5,10.9C82.9,68.9,77.9,73.4,69.5,73.4"/>
	<path class="st0" d="M36.3,26.8c-2.8,0-5,0.3-6.1,0.5V47c1.4,0.4,3.3,0.5,5.4,0.5c7.9,0,12.7-3.9,12.7-10.7
		C48.2,30,43.5,26.8,36.3,26.8"/>
</g>
</svg>
